# xmcd CD database file
#
# Track frame offsets:
#	150
#	18975
#	47665
#	66427
#
# Disc length: 1264 seconds
#
# Revision: 0
# Processed by: cddbd v1.5.1PL0 Copyright (c) Steve Scherf et al.
# Submitted via: CDex 1.51
#
DISCID=2f04ee04
DTITLE=華原朋美 - あなたがいれば
DYEAR=2004
DGENRE=JPop
TTITLE0=あなたがいれば
TTITLE1=I BELIEVE 2004
TTITLE2=あなたがいれば (backing track)
TTITLE3=I BELIEVE 2004 (backing track)
EXTD=YEAR: 2004
EXTT0=
EXTT1=
EXTT2=
EXTT3=
PLAYORDER=
